Coordinates
version=1
nRows=10
nColumns=55
inDegrees=yes

Units are S.I. units (second, meters, Newtons, ...)
If the header above contains a line with 'inDegrees', this indicates whether rotational values are in degrees (yes) or radians (no).

endheader
time	pelvis_tilt	pelvis_list	pelvis_rotation	pelvis_tx	pelvis_ty	pelvis_tz	hip_flexion_r	hip_adduction_r	hip_rotation_r	hip_flexion_l	hip_adduction_l	hip_rotation_l	flex_extension	lat_bending	axial_rotation	L4_L5_IVDjnt_r3	L4_L5_IVD_bendjnt_r1	L4_L5_IVD_rotjnt_r2	L3_L4_IVDjnt_r3	L3_L4_IVD_bendjnt_r1	L3_L4_IVD_rotjnt_r2	L2_L3_IVDjnt_r3	L2_L3_IVD_bendjnt_r1	L2_L3_IVD_rotjnt_r2	L1_L2_IVDjnt_r3	L1_L2_IVD_bendjnt_r1	L1_L2_IVD_rotjnt_r2	Torso_Rot	Abs_r3	Abs_t1	Abs_t2	LB_wrapjnt_r3	LB_wrapjnt_t1	LB_wrapjnt_t2	SC_y	SC_x	SC_z	SC_y_l	SC_x_l	SC_z_l	arm_flex_r	arm_add_r	arm_rot_r	elbow_flex_r	pro_sup_r	wrist_flex_r	wrist_dev_r	arm_flex_l	arm_add_l	arm_rot_l	elbow_flex_l	pro_sup_l	wrist_flex_l	wrist_dev_l
      5.48300000	     18.61190000	     -8.26810000	    -72.98419997	      0.14740000	      0.70330000	     -0.42630000	     42.04690000	     -7.69700000	     -4.88620000	     48.23629999	    -19.64930000	     28.83640000	     -0.00000000	      0.00000000	      0.00000000	     -0.00000000	      0.00000000	      0.00000000	     -0.00000000	      0.00000000	      0.00000000	     -0.00000000	      0.00000000	      0.00000000	     -0.00000000	      0.00000000	      0.00000000	      0.00000000	     -0.00000001	      0.00000000	      0.00000000	     -0.00000001	     -0.00000000	     -0.00000000	      0.00000000	     -0.00000004	      0.00088357	      0.00000000	     -0.00000004	     -0.00088357	     -2.89910000	    -31.50140000	    -15.74050000	     73.16410000	     89.99945435	    -30.98249999	     13.90959999	     27.29580000	    -18.27940000	      0.28000000	     45.50560001	     16.22410003	    -22.72659999	    -24.99945384
      5.49900000	     18.37420000	     -8.37170000	    -72.98299997	      0.14740000	      0.70340000	     -0.42590000	     42.23570000	     -7.64780000	     -5.07620000	     48.55749999	    -19.69650000	     28.98910000	     -0.00000000	      0.00000000	      0.00000000	     -0.00000000	      0.00000000	      0.00000000	     -0.00000000	      0.00000000	      0.00000000	     -0.00000000	      0.00000000	      0.00000000	     -0.00000000	      0.00000000	      0.00000000	      0.00000000	     -0.00000001	      0.00000000	      0.00000000	     -0.00000001	     -0.00000000	     -0.00000000	      0.00000000	     -0.00000004	      0.00088357	      0.00000000	     -0.00000004	     -0.00088357	     -2.86870000	    -31.49620000	    -15.72690000	     73.20350000	     89.99945435	    -31.03689999	     13.78089999	     27.19880000	    -18.26380000	      0.35600000	     43.03860001	     15.39940003	    -23.12919999	    -24.99945384
      5.51600000	     18.14310000	     -8.45380000	    -72.99239997	      0.14750000	      0.70340000	     -0.42540000	     42.42550000	     -7.60280000	     -5.13460000	     48.83699999	    -19.72860000	     29.06810000	     -0.00000000	      0.00000000	      0.00000000	     -0.00000000	      0.00000000	      0.00000000	     -0.00000000	      0.00000000	      0.00000000	     -0.00000000	      0.00000000	      0.00000000	     -0.00000000	      0.00000000	      0.00000000	      0.00000000	     -0.00000001	      0.00000000	      0.00000000	     -0.00000001	     -0.00000000	     -0.00000000	      0.00000000	     -0.00000004	      0.00088357	      0.00000000	     -0.00000004	     -0.00088357	     -2.84700000	    -31.47890000	    -15.71730000	     73.27990000	     89.99945435	    -31.06239999	     13.66289999	     27.19330000	    -18.20240000	      0.49000000	     40.40900002	     14.50980003	    -22.97179999	    -24.99945384
      5.53300000	     17.91830000	     -8.52200000	    -73.00599997	      0.14780000	      0.70340000	     -0.42500000	     42.61220000	     -7.56260000	     -5.10670000	     49.09089999	    -19.74870000	     29.10090000	     -0.00000000	      0.00000000	      0.00000000	     -0.00000000	      0.00000000	      0.00000000	     -0.00000000	      0.00000000	      0.00000000	     -0.00000000	      0.00000000	      0.00000000	     -0.00000000	      0.00000000	      0.00000000	      0.00000000	     -0.00000001	      0.00000000	      0.00000000	     -0.00000001	     -0.00000000	     -0.00000000	      0.00000000	     -0.00000004	      0.00088357	      0.00000000	     -0.00000004	     -0.00088357	     -2.81980000	    -31.45480000	    -15.69090000	     73.37180000	     89.99945435	    -31.06599999	     13.56709999	     27.23480000	    -18.10680000	      0.64700000	     37.70650002	     13.57350003	    -22.54550000	    -24.99945384
      5.54900000	     17.70860000	     -8.58100000	    -73.01529997	      0.14800000	      0.70350000	     -0.42460000	     42.78860000	     -7.52690000	     -5.04850000	     49.33909999	    -19.76170000	     29.12640000	     -0.00000000	      0.00000000	      0.00000000	     -0.00000000	      0.00000000	      0.00000000	     -0.00000000	      0.00000000	      0.00000000	     -0.00000000	      0.00000000	      0.00000000	     -0.00000000	      0.00000000	      0.00000000	      0.00000000	     -0.00000001	      0.00000000	      0.00000000	     -0.00000001	     -0.00000000	     -0.00000000	      0.00000000	     -0.00000004	      0.00088357	      0.00000000	     -0.00000004	     -0.00088357	     -2.73750000	    -31.41530000	    -15.57700000	     73.43610000	     89.99945435	    -31.05689999	     13.54629999	     27.23280000	    -18.00630000	      0.72500000	     35.06390002	     12.71490004	    -22.31799999	    -24.99945384
      5.56600000	     17.51900000	     -8.62470000	    -73.01829997	      0.14830000	      0.70350000	     -0.42410000	     42.95090000	     -7.50450000	     -4.95360000	     49.58309999	    -19.75980000	     29.15290000	     -0.00000000	      0.00000000	      0.00000000	     -0.00000000	      0.00000000	      0.00000000	     -0.00000000	      0.00000000	      0.00000000	     -0.00000000	      0.00000000	      0.00000000	     -0.00000000	      0.00000000	      0.00000000	      0.00000000	     -0.00000001	      0.00000000	      0.00000000	     -0.00000001	     -0.00000000	     -0.00000000	      0.00000000	     -0.00000004	      0.00088357	      0.00000000	     -0.00000004	     -0.00088357	     -2.57410000	    -31.35270000	    -15.32690000	     73.44440000	     89.99945435	    -31.03579999	     13.63769999	     27.17260000	    -17.89350000	      0.68410000	     32.44460002	     11.99140004	    -22.51159999	    -24.99945384
      5.58300000	     17.34450000	     -8.65920000	    -73.01689996	      0.14860000	      0.70350000	     -0.42360000	     43.10270000	     -7.48640000	     -4.82820000	     49.82119999	    -19.75100000	     29.17190000	     -0.00000000	      0.00000000	      0.00000000	     -0.00000000	      0.00000000	      0.00000000	     -0.00000000	      0.00000000	      0.00000000	     -0.00000000	      0.00000000	      0.00000000	     -0.00000000	      0.00000000	      0.00000000	      0.00000000	     -0.00000001	      0.00000000	      0.00000000	     -0.00000001	     -0.00000000	     -0.00000000	      0.00000000	     -0.00000005	      0.00088351	      0.00000000	     -0.00000005	     -0.00088351	     -2.35599999	    -31.27400000	    -14.98980000	     73.42520000	     89.99945434	    -31.00239999	     13.80329999	     27.07000000	    -17.77410000	      0.56430000	     29.88600001	     11.36490005	    -22.89829999	    -24.99945380
      5.59900000	     17.18030000	     -8.70650000	    -73.00909997	      0.14880000	      0.70350000	     -0.42310000	     43.24750000	     -7.44570000	     -4.74770000	     50.06849999	    -19.76350000	     29.19780000	     -0.00000000	      0.00000000	      0.00000000	     -0.00000000	      0.00000000	      0.00000000	     -0.00000000	      0.00000000	      0.00000000	     -0.00000000	      0.00000000	      0.00000000	     -0.00000000	      0.00000000	      0.00000000	      0.00000000	     -0.00000001	      0.00000000	      0.00000000	     -0.00000001	     -0.00000000	     -0.00000000	      0.00000000	     -0.00000005	      0.00088353	      0.00000000	     -0.00000005	     -0.00088353	     -2.11140000	    -31.19300000	    -14.64130000	     73.42100000	     89.99945434	    -30.96409999	     13.98289999	     26.88000000	    -17.69610000	      0.38330000	     27.63420002	     10.83220005	    -23.27359999	    -24.99945381
      5.61600000	     17.03100000	     -8.77220000	    -73.00469997	      0.14880000	      0.70340000	     -0.42260000	     43.38470000	     -7.35630000	     -4.73550000	     50.33139999	    -19.82080000	     29.22310000	     -0.00000000	      0.00000000	      0.00000000	     -0.00000000	      0.00000000	      0.00000000	     -0.00000000	      0.00000000	      0.00000000	     -0.00000000	      0.00000000	      0.00000000	     -0.00000000	      0.00000000	      0.00000000	      0.00000000	     -0.00000001	      0.00000000	      0.00000000	     -0.00000001	     -0.00000000	     -0.00000000	      0.00000000	     -0.00000005	      0.00088353	      0.00000000	     -0.00000005	     -0.00088353	     -1.80689999	    -31.12130000	    -14.26300000	     73.44730000	     89.99945434	    -30.90919999	     14.18579999	     26.55560000	    -17.71020000	      0.12580000	     25.81170002	     10.38570005	    -23.58639999	    -24.99945381
      5.63300000	     16.89200000	     -8.85090000	    -72.99399997	      0.14870000	      0.70310000	     -0.42220000	     43.51490000	     -7.24430000	     -4.76810000	     50.60379999	    -19.89920000	     29.25570000	      0.00000000	      0.00000000	      0.00000000	      0.00000001	      0.00000000	      0.00000000	      0.00000001	      0.00000000	      0.00000000	      0.00000002	      0.00000000	      0.00000000	      0.00000000	      0.00000000	      0.00000000	      0.00000000	      0.00000005	      0.00000000	      0.00000000	      0.00000004	      0.00000000	      0.00000000	      0.00000000	     -0.00000005	      0.00088354	      0.00000000	     -0.00000005	     -0.00088354	     -1.47570000	    -31.04660000	    -13.87370000	     73.48860000	     89.99945434	    -30.84929999	     14.40259999	     26.14310000	    -17.76160000	     -0.19570000	     24.29550002	     10.03940005	    -23.89349999	    -24.99945382
